<svg width="50" height="50" viewBox="0 0 50 50" fill="none" xmlns="http://www.w3.org/2000/svg">
<rect width="50" height="50" rx="25" fill="#D31277"/>
<path d="M24.1663 10C24.5911 10.0005 24.9997 10.1631 25.3086 10.4547C25.6176 10.7464 25.8035 11.1449 25.8284 11.569C25.8533 11.9931 25.7153 12.4106 25.4426 12.7364C25.1699 13.0621 24.7831 13.2715 24.3613 13.3217L24.1663 13.3333H14.9987V36.6667H31.667V25.8333C31.6675 25.4085 31.8302 24.9999 32.1218 24.6911C32.4135 24.3822 32.812 24.1963 33.2362 24.1714C33.6603 24.1465 34.0779 24.2845 34.4037 24.5571C34.7295 24.8298 34.9388 25.2165 34.989 25.6383L35.0007 25.8333V36.6667H38.3344C38.7592 36.6671 39.1678 36.8298 39.4767 37.1214C39.7857 37.413 39.9716 37.8116 39.9965 38.2357C40.0214 38.6597 39.8834 39.0773 39.6107 39.4031C39.338 39.7288 38.9512 39.9382 38.5294 39.9883L38.3344 40H11.665C11.2401 39.9995 10.8315 39.8369 10.5226 39.5453C10.2137 39.2536 10.0278 38.8551 10.0029 38.431C9.97797 38.0069 10.116 37.5894 10.3886 37.2636C10.6613 36.9379 11.0481 36.7285 11.47 36.6783L11.665 36.6667V13.3333C11.6647 12.4924 11.9824 11.6824 12.5542 11.0658C13.1261 10.4491 13.91 10.0714 14.7486 10.0083L14.9987 10H24.1663ZM27.4999 23.3333C27.8283 23.3333 28.1534 23.398 28.4567 23.5236C28.7601 23.6493 29.0357 23.8334 29.2679 24.0656C29.5 24.2977 29.6842 24.5733 29.8099 24.8766C29.9355 25.1799 30.0002 25.505 30.0002 25.8333C30.0002 26.1616 29.9355 26.4867 29.8099 26.79C29.6842 27.0934 29.5 27.369 29.2679 27.6011C29.0357 27.8332 28.7601 28.0174 28.4567 28.143C28.1534 28.2687 27.8283 28.3333 27.4999 28.3333C26.8368 28.3333 26.2009 28.0699 25.732 27.6011C25.2631 27.1323 24.9997 26.4964 24.9997 25.8333C24.9997 25.1703 25.2631 24.5344 25.732 24.0656C26.2009 23.5967 26.8368 23.3333 27.4999 23.3333ZM35.9791 11.9533L39.5128 15.4867C39.8248 15.7991 40 16.2226 40 16.6642C40 17.1057 39.8248 17.5292 39.5128 17.8417L35.9791 21.38C35.665 21.6838 35.244 21.8521 34.807 21.8486C34.3699 21.8451 33.9517 21.6702 33.6425 21.3614C33.3332 21.0526 33.1576 20.6347 33.1535 20.1977C33.1494 19.7607 33.3171 19.3396 33.6205 19.025L34.3139 18.33H28.9667C28.5247 18.33 28.1007 18.1544 27.7881 17.8418C27.4755 17.5293 27.2999 17.1054 27.2999 16.6633C27.2999 16.2213 27.4755 15.7974 27.7881 15.4848C28.1007 15.1723 28.5247 14.9967 28.9667 14.9967H34.3089L33.6222 14.31C33.3186 13.9957 33.1506 13.5747 33.1544 13.1377C33.1582 12.7007 33.3335 12.2826 33.6425 11.9736C33.9516 11.6646 34.3696 11.4893 34.8067 11.4855C35.2437 11.4817 35.6647 11.6497 35.9791 11.9533Z" fill="white"/>
</svg>
